<svg stroke-width=".501" stroke-linejoin="bevel" fill-rule="evenodd" xmlns="http://www.w3.org/2000/svg" overflow="visible" width="751.26" height="880.324" viewBox="0 0 563.445 660.243"><style>@import url(https://fonts.googleapis.com/css2?family=Fira+Code&amp;family=Roboto&amp;display=swap);</style><defs><marker id="DefaultArrow7" markerUnits="strokeWidth" viewBox="0 0 1 1" markerWidth="1" markerHeight="1" overflow="visible" orient="auto"><path d="M18-54h90L63 0l45 54H18L-36 0z" transform="scale(.00926)"/></marker><marker id="DefaultArrow2" markerUnits="strokeWidth" viewBox="0 0 1 1" markerWidth="1" markerHeight="1" overflow="visible" orient="auto"><path d="M-9 54V-54L117 0z" transform="scale(.00926)"/></marker><marker id="DefaultArrow4" markerUnits="strokeWidth" viewBox="0 0 1 1" markerWidth="1" markerHeight="1" overflow="visible" orient="auto"><path d="M-9 0v-45c0-6.708 11.808-11.58 18-9L117-9c3.916 1.631 9 4.758 9 9s-5.084 7.369-9 9L9 54c-6.192 2.58-18-2.292-18-9z" transform="scale(.00926)"/></marker><marker id="DefaultArrow5" markerUnits="strokeWidth" viewBox="0 0 1 1" markerWidth="1" markerHeight="1" overflow="visible" orient="auto"><path d="M-54 0c0 29.807 24.193 54 54 54S54 29.807 54 0 29.807-54 0-54-54-29.807-54 0z" transform="scale(.00926)"/></marker><marker id="DefaultArrow6" markerUnits="strokeWidth" viewBox="0 0 1 1" markerWidth="1" markerHeight="1" overflow="visible" orient="auto"><path d="M-63 0 0 63 63 0 0-63z" transform="scale(.00926)"/></marker><marker id="DefaultArrow3" markerUnits="strokeWidth" viewBox="0 0 1 1" markerWidth="1" markerHeight="1" overflow="visible" orient="auto"><path d="M-27 54-9 0l-18-54L135 0z" transform="scale(.00926)"/></marker><marker id="DefaultArrow8" markerUnits="strokeWidth" viewBox="0 0 1 1" markerWidth="1" markerHeight="1" overflow="visible" orient="auto"><path d="m-36 0 54-54h36L18-18h9l36-36h36L63-18h9l36-36h36L90 0l54 54h-36L72 18h-9l36 36H63L27 18h-9l36 36H18z" transform="scale(.00926)"/></marker><marker id="DefaultArrow9" markerUnits="strokeWidth" viewBox="0 0 1 1" markerWidth="1" markerHeight="1" overflow="visible" orient="auto"><path d="M0 45-45 0 0-45 45 0zm0 18L-63 0 0-63 63 0z" transform="scale(.00926)"/></marker><filter id="StainedFilter"><feBlend mode="multiply" in2="BackgroundImage" in="SourceGraphic" result="blend"/><feComposite in="blend" in2="SourceAlpha" operator="in" result="comp"/></filter><filter id="BleachFilter"><feBlend mode="screen" in2="BackgroundImage" in="SourceGraphic" result="blend"/><feComposite in="blend" in2="SourceAlpha" operator="in" result="comp"/></filter><filter id="InvertTransparencyBitmapFilter"><feComponentTransfer><feFuncR type="gamma" amplitude="1.055" exponent=".417" offset="-.055"/><feFuncG type="gamma" amplitude="1.055" exponent=".417" offset="-.055"/><feFuncB type="gamma" amplitude="1.055" exponent=".417" offset="-.055"/></feComponentTransfer><feComponentTransfer><feFuncR type="linear" slope="-1" intercept="1"/><feFuncG type="linear" slope="-1" intercept="1"/><feFuncB type="linear" slope="-1" intercept="1"/><feFuncA type="linear"/></feComponentTransfer><feComponentTransfer><feFuncR type="gamma" exponent="2.4"/><feFuncG type="gamma" exponent="2.4"/><feFuncB type="gamma" exponent="2.4"/></feComponentTransfer></filter></defs><g id="Document" fill="none" stroke="#000" font-family="Times New Roman" font-size="16" transform="scale(1 -1)"><g id="Spread" transform="translate(0 -660.243)"><path d="M0 660.243V0h563.445v660.243H0z" fill="#ccc" stroke-linecap="round" stroke-width=".75" stroke="none" stroke-linejoin="miter" stroke-miterlimit="79.84" id="Layer 4"/><g id="Layer 3" stroke-miterlimit="79.84"><path d="M91.786 584.272v-53.95" stroke="#333" stroke-width=".75" stroke-linejoin="miter"/><path d="M29.021 530.719V268.794H154.55v261.925H29.021z" stroke="none" fill="#333" stroke-width=".75" stroke-linecap="round" stroke-linejoin="miter"/><text xml:space="preserve" transform="matrix(1 0 0 -1 91.586 499.975)" fill="#f1f1f1" font-size="12" font-family="Roboto" stroke="none" stroke-linecap="round" stroke-linejoin="round" stroke-width=".375"><tspan x="-26.317" y="0">Functions</tspan></text><path d="M107.54 524.426a6.634 6.634 0 0 0-6.89 6.362 6.634 6.634 0 0 0 6.362 6.89 6.634 6.634 0 0 0 6.89-6.362 6.634 6.634 0 0 0-6.362-6.89z" stroke-linecap="round" stroke="#333" fill="#ffffd6" stroke-width=".75" stroke-linejoin="miter"/><text xml:space="preserve" transform="matrix(1 0 0 -1 107.827 527.838)" font-size="9" font-family="Roboto" stroke-linecap="round" fill="#333" stroke="none" stroke-linejoin="round" stroke-width=".375"><tspan x="-2.527" y="0">1</tspan></text><path d="M279.737 497.303v-56.567h125.529v56.567H279.737zM279.739 412.962v-57.927h125.529v57.927H279.739zM279.739 328.421v-60.175h125.529v60.175H279.739z" fill="#333" stroke="none" stroke-width=".75" stroke-linecap="round" stroke-linejoin="miter"/><text xml:space="preserve" transform="matrix(1 0 0 -1 315.842 380.922)" fill="#f1f1f1" font-size="12" font-family="Roboto" stroke="none" stroke-linecap="round" stroke-linejoin="round" stroke-width=".25"><tspan x="0" y="0">Mappings</tspan></text><text xml:space="preserve" transform="matrix(1 0 0 -1 327.486 464.578)" fill="#f1f1f1" font-size="12" font-family="Roboto" stroke="none" stroke-linecap="round" stroke-linejoin="round" stroke-width=".25"><tspan x="0" y="0">Stash</tspan></text><text xml:space="preserve" transform="matrix(1 0 0 -1 306.626 293.892)" fill="#f1f1f1" font-size="12" font-family="Roboto" stroke="none" stroke-linecap="round" stroke-linejoin="round" stroke-width=".25"><tspan x="0" y="0">EDI Translate</tspan></text><path d="M406.71 328.421v-60.325h125.529v60.325H406.71z" fill="#333" stroke="none" stroke-width=".75" stroke-linecap="round" stroke-linejoin="miter"/><text xml:space="preserve" transform="matrix(1 0 0 -1 452.005 293.241)" fill="#f1f1f1" font-size="12" font-family="Roboto" stroke="none" stroke-linecap="round" stroke-linejoin="round" stroke-width=".25"><tspan x="0" y="0">Guides</tspan></text><path d="m275.746 467.208 4.45-4.208v8.414l-4.45-4.206z" id="Group" stroke-linejoin="miter" stroke-linecap="round" stroke="#333" stroke-width=".75" fill="#333"/><path d="m150.193 467.358 4.45-4.208v8.414l-4.45-4.206z" id="Group_1" stroke-linejoin="miter" stroke-linecap="round" stroke="#ccc" stroke-width=".75" fill="#ccc"/><path d="M147.092 467.296H286.12" stroke="#333" stroke-width=".75" stroke-linejoin="miter"/><text xml:space="preserve" transform="matrix(1 0 0 -1 172.789 472.46)" fill="#333" font-size="10" stroke="none" stroke-linecap="round" stroke-linejoin="round" stroke-width=".25" font-family="Roboto"><tspan x="0" y="0">control number</tspan></text><text xml:space="preserve" transform="matrix(1 0 0 -1 196.652 403.845)" fill="#333" font-size="10" stroke="none" stroke-linecap="round" stroke-linejoin="round" stroke-width=".25" font-family="Roboto"><tspan x="0" y="0">custom JSON</tspan></text><path d="m275.748 367.156 4.45-4.208v8.414l-4.45-4.206z" id="Group_2" stroke-linejoin="miter" stroke-linecap="round" stroke="#333" stroke-width=".75" fill="#333"/><path d="m150.195 367.306 4.45-4.208v8.414l-4.45-4.206z" id="Group_3" stroke-linejoin="miter" stroke-linecap="round" stroke="#ccc" stroke-width=".75" fill="#ccc"/><path d="M147.094 367.244h139.028" stroke="#333" stroke-width=".75" stroke-linejoin="miter"/><text xml:space="preserve" transform="matrix(1 0 0 -1 176.991 370.533)" fill="#333" font-size="10" stroke="none" stroke-linecap="round" stroke-linejoin="round" stroke-width=".25" font-family="Roboto"><tspan x="0" y="0">mapped JSON</tspan></text><path d="m157.468 400.156-4.45-4.208v8.414l4.45-4.206z" id="Group_4" stroke-linejoin="miter" stroke-linecap="round" stroke="#333" stroke-width=".75" fill="#333"/><path d="m283.771 400.306-4.45-4.208v8.414l4.45-4.206z" id="Group_5" stroke-linejoin="miter" stroke-linecap="round" stroke="#ccc" stroke-width=".75" fill="#ccc"/><path d="M286.122 400.244H147.094" stroke="#333" stroke-width=".75" stroke-linejoin="miter"/><g id="Group_6" stroke-linejoin="miter" stroke-width=".75"><path d="M173.574 414.677v-21.269h16.391v21.269h-16.391z" fill="#ccc" stroke="#ccc" stroke-linecap="round"/><path d="M174.297 413.912v-19.837h14.879l.002 14.879-4.96 4.958h-9.921z" stroke="#333" fill="#f1f1f1" stroke-linecap="round"/><path d="M184.218 413.912v-4.958l4.66-.005" stroke="#333"/></g><path d="m275.748 281.053 4.45-4.208v8.414l-4.45-4.206z" id="Group_7" stroke-linejoin="miter" stroke-linecap="round" stroke="#333" stroke-width=".75" fill="#333"/><path d="m150.195 281.203 4.45-4.208v8.414l-4.45-4.206z" id="Group_8" stroke-linejoin="miter" stroke-linecap="round" stroke="#ccc" stroke-width=".75" fill="#ccc"/><path d="M147.094 281.141h139.028" stroke="#333" stroke-width=".75" stroke-linejoin="miter"/><path d="m157.468 314.053-4.45-4.208v8.414l4.45-4.206z" id="Group_9" stroke-linejoin="miter" stroke-linecap="round" stroke="#333" stroke-width=".75" fill="#333"/><path d="m283.771 314.203-4.45-4.208v8.414l4.45-4.206z" id="Group_10" stroke-linejoin="miter" stroke-linecap="round" stroke="#ccc" stroke-width=".75" fill="#ccc"/><path d="M286.122 314.141H147.094" stroke="#333" stroke-width=".75" stroke-linejoin="miter"/><g id="Group_11" stroke-linejoin="miter" stroke-width=".75"><path d="M247.227 381.119V359.85h16.391v21.269h-16.391z" stroke="#ccc" fill="#ccc" stroke-linecap="round"/><path d="M247.95 380.354v-19.837h14.879l.002 14.879-4.96 4.958h-9.921z" stroke="#333" fill="#f1f1f1" stroke-linecap="round"/><path d="M257.871 380.354v-4.958l4.66-.005" stroke="#333"/></g><text xml:space="preserve" transform="matrix(1 0 0 -1 196.651 317.845)" fill="#333" font-size="10" stroke="none" stroke-linecap="round" stroke-linejoin="round" stroke-width=".25" font-family="Roboto"><tspan x="0" y="0">mapped JSON</tspan></text><text xml:space="preserve" transform="matrix(1 0 0 -1 201.906 284.532)" fill="#333" font-size="10" stroke="none" stroke-linecap="round" stroke-linejoin="round" stroke-width=".25" font-family="Roboto"><tspan x="0" y="0">EDI</tspan></text><g id="Group_12" stroke-linejoin="miter" stroke-width=".75"><path d="M173.573 328.677v-21.269h16.391v21.269h-16.391z" stroke="#ccc" fill="#ccc" stroke-linecap="round"/><path d="M174.296 327.912v-19.837h14.879l.002 14.879-4.96 4.958h-9.921z" stroke="#333" fill="#f1f1f1" stroke-linecap="round"/><path d="M184.217 327.912v-4.958l4.66-.005" stroke="#333"/></g><g id="Group_13" stroke-linejoin="miter" stroke-width=".75"><path d="M226.149 295.118v-21.269h16.391v21.269h-16.391z" stroke="#ccc" fill="#ccc" stroke-linecap="round"/><path d="M226.872 294.353v-19.837h14.879l.002 14.879-4.96 4.958h-9.921z" stroke="#333" fill="#f1f1f1" stroke-linecap="round"/><path d="M236.793 294.353v-4.958l4.66-.005" stroke="#333"/></g><g id="Group_14" stroke-linejoin="miter" stroke-width=".75"><path d="M247.227 481.202v-21.269h16.391v21.269h-16.391z" stroke="#ccc" fill="#ccc" stroke-linecap="round"/><path d="M247.95 480.437V460.6h14.879l.002 14.879-4.96 4.958h-9.921z" stroke="#333" fill="#f1f1f1" stroke-linecap="round"/><path d="M257.871 480.437v-4.958l4.66-.005" stroke="#333"/></g><path d="M154.531 377.94a6.634 6.634 0 0 0-6.89 6.362 6.634 6.634 0 0 0 6.362 6.89 6.634 6.634 0 0 0 6.89-6.362 6.634 6.634 0 0 0-6.362-6.89z" stroke-linecap="round" stroke="#333" fill="#ffffd6" stroke-width=".75" stroke-linejoin="miter"/><text xml:space="preserve" transform="matrix(1 0 0 -1 154.353 381.367)" font-size="9" font-family="Roboto" stroke-linecap="round" fill="#333" stroke="none" stroke-linejoin="round" stroke-width=".375"><tspan x="-2.527" y="0">3</tspan></text><path d="M154.53 291.834a6.634 6.634 0 0 0-6.89 6.362 6.634 6.634 0 0 0 6.362 6.89 6.634 6.634 0 0 0 6.89-6.362 6.634 6.634 0 0 0-6.362-6.89z" stroke-linecap="round" stroke="#333" fill="#ffffd6" stroke-width=".75" stroke-linejoin="miter"/><text xml:space="preserve" transform="matrix(1 0 0 -1 154.25 295.26)" font-size="9" font-family="Roboto" stroke-linecap="round" fill="#333" stroke="none" stroke-linejoin="round" stroke-width=".375"><tspan x="-2.527" y="0">4</tspan></text><path d="m400.772 297.309 4.45-4.208v8.414l-4.45-4.206z" id="Group_15" stroke-linejoin="miter" stroke-linecap="round" stroke="#ccc" stroke-width=".75" fill="#ccc"/><path d="m402.647 297.309 4.45-4.208v8.414l-4.45-4.206z" id="Group_16" stroke-linejoin="miter" stroke-linecap="round" stroke="#333" stroke-width=".75" fill="#333"/><path d="M29.022 218.515v-56.249h125.529v56.249H29.022z" stroke="none" fill="#333" stroke-width=".75" stroke-linecap="round" stroke-linejoin="miter"/><text xml:space="preserve" transform="matrix(1 0 0 -1 70.13 185.949)" fill="#f1f1f1" font-size="12" font-family="Roboto" stroke="none" stroke-linecap="round" stroke-linejoin="round" stroke-width=".25"><tspan x="0" y="0">Buckets</tspan></text><path d="M29.022 161.274v-29.999h125.529v29.999H29.022z" stroke="none" fill="#333" stroke-width=".75" stroke-linecap="round" stroke-linejoin="miter"/><text xml:space="preserve" transform="matrix(1 0 0 -1 77.534 141.028)" fill="#f1f1f1" font-size="12" font-family="Roboto" stroke="none" stroke-linecap="round" stroke-linejoin="round" stroke-width=".25"><tspan x="0" y="0">SFTP</tspan></text><g id="Group_17" stroke-linejoin="miter" stroke-linecap="round" stroke-width=".75"><path d="m92.222 156.671 4.208 4.45h-8.414l4.206-4.45z" id="Group_18" stroke="#ccc" fill="#ccc"/><path d="m92.222 158.546 4.208 4.45h-8.414l4.206-4.45z" id="Group_19" stroke="#333" fill="#333"/></g><path d="M154.532 480.119a6.634 6.634 0 0 0-6.89 6.362 6.634 6.634 0 0 0 6.362 6.89 6.634 6.634 0 0 0 6.89-6.362 6.634 6.634 0 0 0-6.362-6.89z" stroke-linecap="round" stroke="#333" fill="#ffffd6" stroke-width=".75" stroke-linejoin="miter"/><text xml:space="preserve" transform="matrix(1 0 0 -1 154.228 483.502)" font-size="9" font-family="Roboto" stroke-linecap="round" fill="#333" stroke="none" stroke-linejoin="round" stroke-width=".375"><tspan x="-2.527" y="0">2</tspan></text><path d="M406.368 271.794a6.634 6.634 0 0 0-6.89 6.362 6.634 6.634 0 0 0 6.362 6.89 6.634 6.634 0 0 0 6.89-6.362 6.634 6.634 0 0 0-6.362-6.89z" stroke-linecap="round" stroke="#333" fill="#ffffd6" stroke-width=".75" stroke-linejoin="miter"/><text xml:space="preserve" transform="matrix(1 0 0 -1 405.943 275.264)" font-size="9" font-family="Roboto" stroke-linecap="round" fill="#333" stroke="none" stroke-linejoin="round" stroke-width=".375"><tspan x="-2.527" y="0">5</tspan></text><path d="m91.752 264.323 4.208 4.45h-8.414l4.206-4.45z" id="Group_20" stroke-linejoin="miter" stroke-linecap="round" stroke="#333" stroke-width=".75" fill="#333"/><text xml:space="preserve" transform="matrix(1 0 0 -1 105.923 241.035)" fill="#333" font-size="10" stroke="none" stroke-linecap="round" stroke-linejoin="round" stroke-width=".25" font-family="Roboto"><tspan x="0" y="0">EDI</tspan></text><path d="m91.884 214.062 4.208 4.45h-8.414l4.206-4.45z" id="Group_21" stroke-linejoin="miter" stroke-linecap="round" stroke="#ccc" stroke-width=".75" fill="#ccc"/><path d="M91.785 265.216v-53.95" stroke="#333" stroke-width=".75" stroke-linejoin="miter"/><g id="Group_22" stroke-linejoin="miter" stroke-width=".75"><path d="M83.727 255.023v-21.269h16.391v21.269H83.727z" stroke="#ccc" fill="#ccc" stroke-linecap="round"/><path d="M84.45 254.258v-19.837h14.879l.002 14.879-4.96 4.958H84.45z" stroke="#333" fill="#f1f1f1" stroke-linecap="round"/><path d="M94.371 254.258V249.3l4.66-.005" stroke="#333"/></g><path d="M113.353 262.559a6.634 6.634 0 0 0-6.89 6.362 6.634 6.634 0 0 0 6.362 6.89 6.634 6.634 0 0 0 6.89-6.362 6.634 6.634 0 0 0-6.362-6.89z" stroke-linecap="round" stroke="#333" fill="#ffffd6" stroke-width=".75" stroke-linejoin="miter"/><text xml:space="preserve" transform="matrix(1 0 0 -1 113.014 266.027)" font-size="9" font-family="Roboto" stroke-linecap="round" fill="#333" stroke="none" stroke-linejoin="round" stroke-width=".375"><tspan x="-2.527" y="0">6</tspan></text><path d="m91.753 127.162 4.208 4.45h-8.414l4.206-4.45z" id="Group_23" stroke-linejoin="miter" stroke-linecap="round" stroke="#333" stroke-width=".75" fill="#333"/><path d="M29.024 82.103V25.854h125.529v56.249H29.024z" fill="#f1f1f1" stroke="none" stroke-width=".75" stroke-linecap="round" stroke-linejoin="miter"/><text xml:space="preserve" transform="matrix(1 0 0 -1 38.386 57.96)" font-family="Roboto" font-size="12" stroke-linecap="round" stroke-linejoin="round" stroke="none" stroke-width=".25" fill="#333"><tspan x="9.982" y="0">trading partner’s </tspan><tspan x="34.246" y="14.401">system</tspan></text><path d="m91.885 77.757 4.208 4.45h-8.414l4.206-4.45z" id="Group_24" stroke-linejoin="miter" stroke-linecap="round" stroke="#ccc" stroke-width=".75" fill="#ccc"/><g id="Group_25" stroke-linejoin="miter" stroke-linecap="round"><path d="m91.78 77.331 4.208 4.45h-8.414l4.206-4.45z" stroke-width=".75" fill="#fff" stroke="#333"/><path d="m91.781 77.835 5.028 5.341H86.752l5.029-5.341z" stroke-width=".882" fill="#ccc" stroke="none"/></g><path d="M91.786 127.56V77.688" stroke="#333" stroke-width=".75" stroke-linejoin="miter"/><path d="M29.025 640.578v-56.251h125.529v56.251H29.025z" fill="#f1f1f1" stroke="none" stroke-width=".75" stroke-linecap="round" stroke-linejoin="miter"/><text xml:space="preserve" transform="matrix(1 0 0 -1 38.461 609.796)" font-family="Roboto" font-size="12" stroke-linecap="round" stroke-linejoin="round" stroke="none" stroke-width=".25" fill="#333"><tspan x="21.162" y="0">your system</tspan></text><text xml:space="preserve" transform="matrix(1 0 0 -1 105.924 555.07)" fill="#333" font-size="10" stroke="none" stroke-linecap="round" stroke-linejoin="round" stroke-width=".25" font-family="Roboto"><tspan x="0" y="0">custom JSON</tspan></text><g id="Group_26" stroke-linejoin="miter" stroke-width=".75"><path d="M83.728 569.058v-21.269h16.391v21.269H83.728z" stroke="#ccc" fill="#ccc" stroke-linecap="round"/><path d="M84.451 568.293v-19.837H99.33l.002 14.879-4.96 4.958h-9.921z" stroke="#333" fill="#f1f1f1" stroke-linecap="round"/><path d="M94.372 568.293v-4.958l4.66-.005" stroke="#333"/></g><text xml:space="preserve" transform="matrix(1 0 0 -1 105.923 101.049)" fill="#333" font-size="10" stroke="none" stroke-linecap="round" stroke-linejoin="round" stroke-width=".25" font-family="Roboto"><tspan x="0" y="0">EDI</tspan></text><g id="Group_27" stroke-linejoin="miter" stroke-width=".75"><path d="M83.727 115.037V93.768h16.391v21.269H83.727z" stroke="#ccc" fill="#ccc" stroke-linecap="round"/><path d="M84.45 114.272V94.435h14.879l.002 14.879-4.96 4.958H84.45z" stroke="#333" fill="#f1f1f1" stroke-linecap="round"/><path d="M94.371 114.272v-4.958l4.66-.005" stroke="#333"/></g><path d="M113.354 124.948a6.634 6.634 0 0 0-6.89 6.362 6.634 6.634 0 0 0 6.362 6.89 6.634 6.634 0 0 0 6.89-6.362 6.634 6.634 0 0 0-6.362-6.89z" stroke-linecap="round" stroke="#333" fill="#ffffd6" stroke-width=".75" stroke-linejoin="miter"/><text xml:space="preserve" transform="matrix(1 0 0 -1 113.117 128.374)" font-size="9" font-family="Roboto" stroke-linecap="round" fill="#333" stroke="none" stroke-linejoin="round" stroke-width=".375"><tspan x="-2.527" y="0">7</tspan></text><g id="Group_28" stroke-linejoin="miter" stroke-linecap="round"><path d="m91.783 579.488 4.208 4.45h-8.414l4.206-4.45z" fill="#fff" stroke-width=".75" stroke="#333"/><path d="m91.784 579.992 5.028 5.341H86.755l5.029-5.341z" fill="#f1f1f1" stroke-width=".882" stroke="none"/></g><text xml:space="preserve" transform="matrix(1 0 0 -1 181.77 399.762)" font-size="8" font-family="Fira Code" stroke-linecap="round" stroke-linejoin="round" stroke="none" stroke-width=".375" fill="#333"><tspan x="-4.801" y="0">{}</tspan></text><text xml:space="preserve" transform="matrix(1 0 0 -1 255.493 465.877)" font-size="8" font-family="Fira Code" stroke-linecap="round" stroke-linejoin="round" stroke="none" stroke-width=".375" fill="#333"><tspan x="-4.801" y="0">01</tspan></text><text xml:space="preserve" transform="matrix(1 0 0 -1 234.344 281.029)" font-size="8" font-family="Fira Code" stroke-linecap="round" stroke-linejoin="round" stroke="none" stroke-width=".375" fill="#333"><tspan x="-2.4" y="0">*</tspan></text><text xml:space="preserve" transform="matrix(1 0 0 -1 91.922 240.934)" font-size="8" font-family="Fira Code" stroke-linecap="round" stroke-linejoin="round" stroke="none" stroke-width=".375" fill="#333"><tspan x="-2.4" y="0">*</tspan></text><text xml:space="preserve" transform="matrix(1 0 0 -1 91.922 100.948)" font-size="8" font-family="Fira Code" stroke-linecap="round" stroke-linejoin="round" stroke="none" stroke-width=".375" fill="#333"><tspan x="-2.4" y="0">*</tspan></text><text xml:space="preserve" transform="matrix(1 0 0 -1 91.925 554.143)" font-size="8" font-family="Fira Code" stroke-linecap="round" stroke-linejoin="round" stroke="none" stroke-width=".375" fill="#333"><tspan x="-4.801" y="0">{}</tspan></text><text xml:space="preserve" transform="matrix(1 0 0 -1 255.423 366.204)" font-size="8" font-family="Fira Code" stroke-linecap="round" stroke-linejoin="round" stroke="none" stroke-width=".375" fill="#333"><tspan x="-7.201" y="0">{*}</tspan></text><text xml:space="preserve" transform="matrix(1 0 0 -1 181.769 313.762)" font-size="8" font-family="Fira Code" stroke-linejoin="round" stroke-linecap="round" stroke="none" stroke-width=".375" fill="#333"><tspan x="-7.201" y="0">{*}</tspan></text></g></g></g></svg>